<svg width="94" height="83" viewBox="0 0 94 83" fill="none" xmlns="http://www.w3.org/2000/svg">
<path d="M30.8804 74.8031C23.6818 55.2499 6.09036 50.1003 0 50.1953C2.79333 67.0325 17.0374 76.1342 25.8224 74.8031C16.9027 66.5113 16.2561 67.5616 10.5545 59.0555C11.6725 60.1726 22.9209 69.7761 27.9521 74.8031L30.8804 74.8031Z" fill="#2F4F4F"/>
<path d="M31.6768 70.233C26.5657 55.4721 9.13971 49.0044 2.66219 47.6156C2.66411 44.6396 2.34134 36.3157 9.05069 26.1886C15.1715 16.9498 38.2439 3.57117 49.7792 0C46.4074 1.98398 42.8572 6.54714 48.1812 13.6895C53.5051 20.8318 54.8373 31.1768 54.8373 35.9384C52.4415 37.1287 44.9879 41.0684 44.7217 54.7579C44.5088 65.7095 37.8003 70.8282 35.4045 70.233C34.0729 60.6959 34.6054 64.689 34.0729 60.6959C29.3878 42.602 35.6698 17.8558 39.929 11.3087C21.2962 28.5693 31.6768 59.8973 33.5413 70.233H31.6768Z" fill="#2F4F4F"/>
<path d="M79.0199 62.0852C74.147 82.2298 48.1074 84.0284 35.7828 78.8608C44.511 77.6638 58.6843 61.0711 67.1629 47.2712C69.9857 42.6767 76.3816 38.2283 79.3175 36.8258C77.6866 36.3363 65.7657 41.9582 59.7946 53.1831C55.0178 62.1629 47.645 66.8282 43.9263 67.0823C46.3851 59.7532 46.6589 56.528 46.8134 54.7076L46.8166 54.6703C48.8185 31.0931 75.98 30.3357 90.4406 31.2432C83.5664 36.5204 83.9011 41.9062 79.0199 62.0852Z" fill="#2F4F4F"/>
</svg>
