<svg width="40" height="37" viewBox="0 0 40 37" fill="none" xmlns="http://www.w3.org/2000/svg">
<path d="M13.2289 32.9011C10.145 24.5247 2.60905 22.3187 0 22.3594C1.19663 29.5722 7.29868 33.4713 11.0621 32.9011C7.24095 29.349 6.96397 29.7989 4.52144 26.155C5.0004 26.6335 9.81909 30.7476 11.9744 32.9011L13.2289 32.9011Z" fill="#EDE7DC"/>
<path d="M13.5695 30.9465C11.38 24.6231 3.91488 21.8524 1.13997 21.2574C1.14079 19.9825 1.00252 16.4167 3.87674 12.0783C6.49885 8.12049 16.3828 2.38923 21.3245 0.859375C19.88 1.70929 18.3591 3.66411 20.6399 6.72382C22.9206 9.78352 23.4913 14.2152 23.4913 16.255C22.465 16.765 19.2719 18.4527 19.1579 24.3171C19.0666 29.0087 16.1928 31.2015 15.1664 30.9465C14.596 26.8609 14.8241 28.5715 14.596 26.8609C12.589 19.1097 15.2801 8.50865 17.1047 5.70391C9.12259 13.0982 13.5695 26.5188 14.3683 30.9465H13.5695Z" fill="#EDE7DC"/>
<path d="M33.8526 27.4567C31.7651 36.0865 20.61 36.857 15.3303 34.6432C19.0693 34.1304 25.1411 27.0223 28.7732 21.1105C29.9825 19.1423 32.7224 17.2366 33.9801 16.6358C33.2815 16.4261 28.1747 18.8345 25.6167 23.6431C23.5703 27.49 20.4119 29.4886 18.8189 29.5974C19.8722 26.4577 19.9895 25.0761 20.0557 24.2962L20.057 24.2802C20.9146 14.18 32.5504 13.8555 38.7451 14.2443C35.8003 16.505 35.9437 18.8122 33.8526 27.4567Z" fill="#EDE7DC"/>
</svg>
