<svg width="31" height="31" viewBox="0 0 31 31" fill="none" xmlns="http://www.w3.org/2000/svg">
<path d="M20.5774 16.8505C21.5217 16.8505 22.3527 16.3342 22.7808 15.5536L27.2883 7.38178C27.7541 6.55075 27.1498 5.51827 26.1929 5.51827H7.55853L6.37499 3H2.25781V5.51827H4.77597L9.30864 15.0751L7.60889 18.1474C6.68976 19.8346 7.89848 21.887 9.81227 21.887H24.9212V19.3687H9.81227L11.1973 16.8505H20.5774ZM8.75465 8.03653H24.0524L20.5774 14.3322H11.7387L8.75465 8.03653ZM9.81227 23.1461C8.42729 23.1461 7.30671 24.2793 7.30671 25.6644C7.30671 27.0494 8.42729 28.1827 9.81227 28.1827C11.1973 28.1827 12.3304 27.0494 12.3304 25.6644C12.3304 24.2793 11.1973 23.1461 9.81227 23.1461ZM22.403 23.1461C21.0181 23.1461 19.8975 24.2793 19.8975 25.6644C19.8975 27.0494 21.0181 28.1827 22.403 28.1827C23.788 28.1827 24.9212 27.0494 24.9212 25.6644C24.9212 24.2793 23.788 23.1461 22.403 23.1461Z" fill="#EDE7DC"/>
</svg>
